<?xml version="1.0" standalone="no"?><!DOCTYPE svg PUBLIC "-//W3C//DTD SVG 1.1//EN" "http://www.w3.org/Graphics/SVG/1.1/DTD/svg11.dtd"><svg t="1562580023620" class="icon" viewBox="0 0 1024 1024" version="1.1" xmlns="http://www.w3.org/2000/svg" p-id="2180" xmlns:xlink="http://www.w3.org/1999/xlink" width="200" height="200"><defs><style type="text/css"></style></defs><path d="M273.7 98.8v619.9c0 4.5-3.6 8.1-8.1 8.1h-82.9v-628h91z" fill="#1b7c21" p-id="2181"></path><path d="M185.8 823.4h-36.1V140.9c0-42.3 34.4-76.7 76.7-76.7h571.2c42.3 0 76.7 34.4 76.7 76.7V723h-36.1V140.9c0-22.4-18.2-40.6-40.6-40.6H226.4c-22.4 0-40.6 18.2-40.6 40.6v682.5z" fill="#1b7c21" p-id="2182"></path><path d="M873.5 956.8H284.6c-74.4 0-134.9-60.5-134.9-134.9S210.2 687 284.6 687h559.2v36H284.6c-54.5 0-98.8 44.3-98.8 98.8s44.3 98.8 98.8 98.8h588.9v36.2z" fill="#1b7c21" p-id="2183"></path><path d="M246.7 810.5h626.9v24.1H246.7zM480.4 211.5H775v24.1H480.4zM480.4 318.3H775v24.1H480.4z" fill="#1b7c21" p-id="2184"></path></svg>