<?xml version="1.0" standalone="no"?><!DOCTYPE svg PUBLIC "-//W3C//DTD SVG 1.1//EN" "http://www.w3.org/Graphics/SVG/1.1/DTD/svg11.dtd"><svg t="1562550723919" class="icon" viewBox="0 0 1024 1024" version="1.1" xmlns="http://www.w3.org/2000/svg" p-id="2179" xmlns:xlink="http://www.w3.org/1999/xlink" width="200" height="200"><defs><style type="text/css"></style></defs><path d="M581 468l-50.9 345.2c-2.4 17.5 9.9 33.6 27.4 36 17.5 2.4 33.6-9.9 36-27.4l50.9-345.2c2.4-17.5-9.9-33.6-27.4-36-17.5-2.4-33.6 9.9-36 27.4z" fill="#1b7c21" p-id="2180"></path><path d="M803.9 368h-614c-17.7 0-32-14.3-32-32s14.3-32 32-32h614c17.7 0 32 14.3 32 32s-14.3 32-32 32zM657.6 854H334.4c-17.7 0-32-14.3-32-32s14.3-32 32-32h323.3c17.7 0 32 14.3 32 32-0.1 17.6-14.4 32-32.1 32z" fill="#1b7c21" p-id="2181"></path><path d="M314.9 441.7l50.9 375.2c2.4 17.5-9.9 33.6-27.4 36-17.5 2.4-33.6-9.9-36-27.4l-50.9-375.2c-2.4-17.5 9.9-33.6 27.4-36 17.4-2.4 33.6 9.9 36 27.4zM679 441.7l-50.9 375.2c-2.4 17.5 9.9 33.6 27.4 36 17.5 2.4 33.6-9.9 36-27.4l50.9-375.2c2.4-17.5-9.9-33.6-27.4-36-17.5-2.4-33.6 9.9-36 27.4z" fill="#1b7c21" p-id="2182"></path><path d="M577.9 244.7c5.4 0 9.8 4.4 9.8 9.8v45.6H406.4v-45.6c0-5.4 4.4-9.8 9.8-9.8h161.7m0-64H416.2c-40.8 0-73.8 33.1-73.8 73.8v48.7c0 33.6 27.3 60.9 60.9 60.9h187.6c33.6 0 60.9-27.3 60.9-60.9v-48.7c-0.1-40.8-33.2-73.8-73.9-73.8z" fill="#1b7c21" p-id="2183"></path></svg>